<svg width="38" height="38" viewBox="0 0 38 38" fill="none" xmlns="http://www.w3.org/2000/svg">
<path d="M12.6667 22.1665C12.2181 22.1665 11.8423 22.0145 11.5393 21.7105C11.2364 21.4065 11.0844 21.0307 11.0833 20.5832C11.0823 20.1356 11.2343 19.7598 11.5393 19.4558C11.8444 19.1518 12.2202 18.9998 12.6667 18.9998C13.1132 18.9998 13.4895 19.1518 13.7956 19.4558C14.1017 19.7598 14.2532 20.1356 14.25 20.5832C14.2468 21.0307 14.0948 21.407 13.794 21.7121C13.4932 22.0171 13.1174 22.1686 12.6667 22.1665ZM19 22.1665C18.5514 22.1665 18.1756 22.0145 17.8727 21.7105C17.5697 21.4065 17.4177 21.0307 17.4167 20.5832C17.4156 20.1356 17.5676 19.7598 17.8727 19.4558C18.1777 19.1518 18.5535 18.9998 19 18.9998C19.4465 18.9998 19.8228 19.1518 20.1289 19.4558C20.435 19.7598 20.5865 20.1356 20.5833 20.5832C20.5802 21.0307 20.4282 21.407 20.1273 21.7121C19.8265 22.0171 19.4507 22.1686 19 22.1665ZM25.3333 22.1665C24.8847 22.1665 24.5089 22.0145 24.206 21.7105C23.9031 21.4065 23.7511 21.0307 23.75 20.5832C23.7489 20.1356 23.9009 19.7598 24.206 19.4558C24.5111 19.1518 24.8868 18.9998 25.3333 18.9998C25.7798 18.9998 26.1561 19.1518 26.4622 19.4558C26.7684 19.7598 26.9198 20.1356 26.9167 20.5832C26.9135 21.0307 26.7615 21.407 26.4607 21.7121C26.1598 22.0171 25.7841 22.1686 25.3333 22.1665ZM7.91667 34.8332C7.04583 34.8332 6.30061 34.5234 5.681 33.9038C5.06139 33.2841 4.75106 32.5384 4.75 31.6665V9.49984C4.75 8.629 5.06033 7.88378 5.681 7.26417C6.30167 6.64456 7.04689 6.33423 7.91667 6.33317H9.5V3.1665H12.6667V6.33317H25.3333V3.1665H28.5V6.33317H30.0833C30.9542 6.33317 31.6999 6.6435 32.3206 7.26417C32.9413 7.88484 33.2511 8.63006 33.25 9.49984V31.6665C33.25 32.5373 32.9402 33.2831 32.3206 33.9038C31.701 34.5244 30.9552 34.8342 30.0833 34.8332H7.91667ZM7.91667 31.6665H30.0833V15.8332H7.91667V31.6665ZM7.91667 12.6665H30.0833V9.49984H7.91667V12.6665Z" fill="#3B5D4F"/>
</svg>
