<svg width="30" height="26" viewBox="0 0 30 26" fill="none" xmlns="http://www.w3.org/2000/svg">
<path d="M25.5 23.1111H4.5V24.5556C4.5 24.9386 4.34196 25.306 4.06066 25.5769C3.77936 25.8478 3.39782 26 3 26H1.5C1.10218 26 0.720644 25.8478 0.43934 25.5769C0.158035 25.306 0 24.9386 0 24.5556V10.1111L3.72 1.75067C3.95148 1.23067 4.33643 0.787567 4.82708 0.47635C5.31773 0.165132 5.89248 -0.000502043 6.48 1.14308e-06H23.52C24.107 6.3573e-05 24.6811 0.165962 25.1712 0.477145C25.6612 0.788328 26.0457 1.23112 26.277 1.75067L30 10.1111V24.5556C30 24.9386 29.842 25.306 29.5607 25.5769C29.2794 25.8478 28.8978 26 28.5 26H27C26.6022 26 26.2206 25.8478 25.9393 25.5769C25.658 25.306 25.5 24.9386 25.5 24.5556V23.1111ZM27 13H3V20.2222H27V13ZM3.264 10.1111H26.736L23.5215 2.88889H6.48L3.264 10.1111ZM6.75 18.7778C6.15326 18.7778 5.58097 18.5495 5.15901 18.1432C4.73705 17.7368 4.5 17.1857 4.5 16.6111C4.5 16.0365 4.73705 15.4854 5.15901 15.079C5.58097 14.6727 6.15326 14.4444 6.75 14.4444C7.34674 14.4444 7.91903 14.6727 8.34099 15.079C8.76295 15.4854 9 16.0365 9 16.6111C9 17.1857 8.76295 17.7368 8.34099 18.1432C7.91903 18.5495 7.34674 18.7778 6.75 18.7778ZM23.25 18.7778C22.6533 18.7778 22.081 18.5495 21.659 18.1432C21.2371 17.7368 21 17.1857 21 16.6111C21 16.0365 21.2371 15.4854 21.659 15.079C22.081 14.6727 22.6533 14.4444 23.25 14.4444C23.8467 14.4444 24.419 14.6727 24.841 15.079C25.2629 15.4854 25.5 16.0365 25.5 16.6111C25.5 17.1857 25.2629 17.7368 24.841 18.1432C24.419 18.5495 23.8467 18.7778 23.25 18.7778Z" fill="#3B5D4F"/>
</svg>
