<svg width="24" height="24" viewBox="0 0 24 24" fill="none" xmlns="http://www.w3.org/2000/svg">
<path d="M22.8934 10.6389C22.5363 7.72675 21.0609 5.12916 18.7408 3.32555C16.4207 1.52056 13.5333 0.723837 10.6101 1.08511C7.63068 1.4505 4.97952 2.98351 3.18415 5.33658L2.9575 3.48901C2.92728 3.23763 2.69788 3.05906 2.44512 3.09065C2.191 3.12087 2.0138 3.35027 2.04402 3.60165L2.441 6.827C2.43826 6.85722 2.43001 6.8847 2.43414 6.91629C2.46436 7.16767 2.69376 7.34625 2.94651 7.31465L6.2378 6.90942C6.25912 6.90676 6.28023 6.90263 6.30098 6.89706C6.5194 6.83937 6.66638 6.62782 6.6389 6.39842C6.60731 6.14704 6.37791 5.96847 6.12653 6.00006L3.73636 6.37919C5.35728 4.02199 7.8752 2.47388 10.7365 2.12222C13.3808 1.79666 15.9935 2.51784 18.0925 4.14974C20.1914 5.78302 21.5266 8.13335 21.8494 10.7667C22.5184 16.2063 18.62 21.1749 13.1597 21.8493C7.69937 22.521 2.71299 18.6418 2.04539 13.2022C2.01517 12.9549 1.65939 12.7887 1.40664 12.8203C1.15389 12.8519 0.97531 13.0799 1.00553 13.3313C1.74319 19.3438 7.2543 23.6296 13.2888 22.8878C13.8003 22.8242 14.307 22.7259 14.8053 22.5939C20.0266 21.1968 23.5692 16.1335 22.8934 10.6389ZM12.9042 7.08525C12.9042 6.76656 12.6583 6.50831 12.3561 6.50831C12.0525 6.50831 11.808 6.76656 11.808 7.08525V13.1115L7.7447 14.5387C7.46997 14.6733 7.35183 15.0168 7.48096 15.3052C7.60871 15.5937 7.93564 15.7173 8.21037 15.5827L12.5786 14.047C12.7874 13.9439 12.9042 13.7214 12.8918 13.4934C12.8945 13.47 12.9042 13.4508 12.9042 13.4274V7.08525Z" fill="#3B5D4F" stroke="#3B5D4F" stroke-width="0.2"/>
</svg>
