<svg width="31" height="31" viewBox="0 0 31 31" fill="none" xmlns="http://www.w3.org/2000/svg">
<path d="M22.1145 30.0224C17.9027 30.0224 14.4886 26.6098 14.4886 22.4C14.4886 18.1905 17.9028 14.7777 22.1145 14.7777C26.3265 14.7777 29.7406 18.1905 29.7406 22.4C29.7406 26.6098 26.3264 30.0224 22.1145 30.0224ZM22.1182 16.2265C18.7076 16.2265 15.9425 18.9917 15.9425 22.4023C15.9425 25.8128 18.7077 28.578 22.1182 28.578C25.5288 28.578 28.294 25.8128 28.294 22.4023C28.294 18.9917 25.5288 16.2265 22.1182 16.2265ZM25.2185 24.9103L21.4629 23.4413C21.4615 23.4405 21.4606 23.439 21.4585 23.4383C21.4186 23.4209 21.3874 23.3911 21.3511 23.3673C21.3118 23.3417 21.2674 23.3221 21.2347 23.2895C21.1476 23.2022 21.0952 23.0883 21.0633 22.9654C21.0466 22.9058 21.0298 22.8476 21.0284 22.7852V19.1044C21.0284 18.7187 21.3409 18.4062 21.7266 18.4062H21.7834C22.1691 18.4062 22.4816 18.7187 22.4816 19.1044V22.3157L25.6742 23.5648C26.0193 23.6999 26.198 24.1104 26.0722 24.4823C25.9458 24.8537 25.5636 25.0454 25.2185 24.9103H25.2185ZM23.2081 6.04742C23.2081 5.24451 22.5579 4.5943 21.7549 4.5943H20.3018V3.14841H21.7549C23.3599 3.14841 24.6612 4.44968 24.6612 6.05466V13.6879C24.1912 13.5513 23.7057 13.4517 23.2081 13.3914V6.04742ZM18.8771 6.78122H18.8203C18.4346 6.78122 18.1221 6.46883 18.1221 6.08299V1.66701C18.1221 1.28117 18.4346 0.96878 18.8203 0.96878H18.8771C19.2628 0.96878 19.5752 1.28117 19.5752 1.66701V6.08299C19.5752 6.4688 19.2627 6.78122 18.8771 6.78122ZM8.67685 3.14841H17.3956V4.5943H8.67685V3.14841ZM7.25203 6.78122H7.19542C6.80958 6.78122 6.49719 6.46883 6.49719 6.08299V1.66701C6.49716 1.28117 6.80958 0.96875 7.19542 0.96875H7.25203C7.63787 0.96875 7.95026 1.28114 7.95026 1.66698V6.08296C7.95026 6.4688 7.63787 6.78122 7.25203 6.78122ZM7.22372 11.1013V11.1798C7.22372 11.5598 6.91636 11.8671 6.53643 11.8671H6.45796C6.07803 11.8671 5.77066 11.5598 5.77066 11.1798V11.1013C5.77066 10.7213 6.07803 10.414 6.45796 10.414H6.53643C6.91636 10.414 7.22372 10.7213 7.22372 11.1013ZM6.5364 16.2265H6.45793C6.078 16.2265 5.77063 15.9191 5.77063 15.5392V15.4607C5.77063 15.0807 6.078 14.7734 6.45793 14.7734H6.5364C6.91633 14.7734 7.22369 15.0807 7.22369 15.4607V15.5392C7.22369 15.9191 6.91633 16.2265 6.5364 16.2265ZM7.22372 19.8985C7.22372 20.2785 6.91636 20.5858 6.53643 20.5858H6.45796C6.07803 20.5858 5.77066 20.2785 5.77066 19.8985V19.8201C5.77066 19.4401 6.07803 19.1328 6.45796 19.1328H6.53643C6.91636 19.1328 7.22372 19.4401 7.22372 19.8201V19.8985ZM9.37511 19.1327H13.6524C13.4714 19.6007 13.3203 20.0838 13.2186 20.5858H9.37511C8.98927 20.5858 8.67688 20.2734 8.67688 19.8877V19.8317C8.67685 19.4452 8.98927 19.1327 9.37511 19.1327ZM8.67685 11.1863V11.0955C8.67685 10.7192 8.98201 10.414 9.35764 10.414H20.3475C20.7233 10.414 21.0284 10.7192 21.0284 11.0955V11.1863C21.0284 11.562 20.7233 11.8671 20.3475 11.8671H9.35767C8.98204 11.8671 8.67685 11.562 8.67685 11.1863ZM9.37511 16.2265C8.98927 16.2265 8.67688 15.914 8.67688 15.5283V15.4717C8.67688 15.0858 8.98927 14.7734 9.37511 14.7734H17.2016C16.5652 15.1847 15.986 15.6737 15.4725 16.2266H9.37511V16.2265ZM2.86438 6.04742V24.938C2.86438 25.7408 3.51465 26.3911 4.3175 26.3911H13.9684C14.222 26.9077 14.522 27.396 14.865 27.8515H4.3175C2.71253 27.8515 1.41125 26.5502 1.41125 24.9452V6.05466C1.41125 4.44968 2.71253 3.14841 4.3175 3.14841H5.77063V4.5943H4.3175C3.51465 4.5943 2.86438 5.24451 2.86438 6.04742Z" fill="#3B5D4F"/>
</svg>
