<svg width="30" height="30" viewBox="0 0 30 30" fill="none" xmlns="http://www.w3.org/2000/svg">
<path d="M6.75 9.1645C5.415 9.1645 4.335 8.08456 4.335 6.74963C4.335 6.10917 4.58944 5.49494 5.04234 5.04206C5.49524 4.58919 6.1095 4.33476 6.75 4.33476C8.085 4.33476 9.165 5.41471 9.165 6.74963C9.165 7.3901 8.91056 8.00433 8.45766 8.4572C8.00476 8.91008 7.3905 9.1645 6.75 9.1645ZM6.75 0C3 0 0 2.99984 0 6.74963C0 11.8044 6.75 19.2889 6.75 19.2889C6.75 19.2889 13.5 11.8044 13.5 6.74963C13.5 2.99984 10.5 0 6.75 0ZM23.25 9.1645C22.6095 9.1645 21.9952 8.91008 21.5423 8.4572C21.0894 8.00433 20.835 7.3901 20.835 6.74963C20.835 6.43251 20.8975 6.11849 21.0188 5.8255C21.1402 5.53252 21.3181 5.2663 21.5423 5.04206C21.7666 4.81782 22.0328 4.63994 22.3258 4.51858C22.6188 4.39723 22.9329 4.33476 23.25 4.33476C23.5671 4.33476 23.8812 4.39723 24.1742 4.51858C24.4672 4.63994 24.7334 4.81782 24.9577 5.04206C25.1819 5.2663 25.3598 5.53252 25.4812 5.8255C25.6025 6.11849 25.665 6.43251 25.665 6.74963C25.665 7.3901 25.4106 8.00433 24.9577 8.4572C24.5048 8.91008 23.8905 9.1645 23.25 9.1645ZM23.25 0C19.5 0 16.5 2.99984 16.5 6.74963C16.5 11.8044 23.25 19.2889 23.25 19.2889C23.25 19.2889 30 11.8044 30 6.74963C30 2.99984 27 0 23.25 0ZM23.25 20.9989C21.345 20.9989 19.65 22.1988 19.02 23.9987H10.98C10.5825 22.8761 9.75624 21.9569 8.6822 21.4423C7.60815 20.9278 6.37394 20.8601 5.25 21.2538C4.69137 21.4496 4.1768 21.7535 3.73571 22.1482C3.29461 22.5429 2.93564 23.0207 2.67931 23.5542C2.42298 24.0877 2.27433 24.6665 2.24185 25.2575C2.20936 25.8485 2.29369 26.4401 2.49 26.9985C2.89285 28.124 3.72471 29.0444 4.80392 29.5587C5.88313 30.073 7.12201 30.1394 8.25 29.7434C9.525 29.2934 10.5 28.2735 10.98 26.9985H19.035C19.86 29.3384 22.44 30.5683 24.75 29.7434C25.3103 29.5497 25.8268 29.2471 26.2699 28.8532C26.7129 28.4592 27.0737 27.9816 27.3316 27.4478C27.5895 26.914 27.7393 26.3345 27.7725 25.7425C27.8057 25.1506 27.7216 24.558 27.525 23.9987C26.88 22.1988 25.17 20.9989 23.25 20.9989ZM23.25 27.7485C22.6533 27.7485 22.081 27.5114 21.659 27.0895C21.2371 26.6676 21 26.0953 21 25.4986C21 24.9019 21.2371 24.3296 21.659 23.9077C22.081 23.4858 22.6533 23.2487 23.25 23.2487C23.8467 23.2487 24.419 23.4858 24.841 23.9077C25.2629 24.3296 25.5 24.9019 25.5 25.4986C25.5 26.0953 25.2629 26.6676 24.841 27.0895C24.419 27.5114 23.8467 27.7485 23.25 27.7485Z" fill="#3B5D4F"/>
</svg>
