<svg width="34" height="34" viewBox="0 0 34 34" fill="none" xmlns="http://www.w3.org/2000/svg">
<path d="M5.70138 18.9805L5.71307 18.9911L15.2724 27.3848C15.6513 27.7178 16.1363 27.9051 16.6406 27.9133C17.145 27.9215 17.6358 27.75 18.0253 27.4295L27.8811 19.3098C28.7152 18.6992 29.4072 17.9151 29.9095 17.0115C30.4117 16.1079 30.7122 15.1062 30.7904 14.0754C30.8686 13.0446 30.7226 12.009 30.3624 11.04C30.0022 10.071 29.4364 9.19152 28.7039 8.46204C27.9714 7.73256 27.0895 7.17039 26.119 6.81422C25.1485 6.45805 24.1124 6.31632 23.0819 6.39877C22.0514 6.48123 21.051 6.78593 20.1495 7.29189C19.248 7.79786 18.4668 8.4931 17.8596 9.32979L17 10.5145L16.1404 9.33191C15.5465 8.51328 14.7858 7.82982 13.9085 7.32656C13.0312 6.82329 12.0572 6.51166 11.0507 6.4122C10.0442 6.31273 9.02801 6.42769 8.06917 6.7495C7.11033 7.07131 6.23057 7.59266 5.48786 8.2792C4.74516 8.96573 4.15638 9.80187 3.76032 10.7325C3.36426 11.6631 3.16991 12.6671 3.19008 13.6783C3.21026 14.6895 3.44449 15.685 3.87736 16.5991C4.31022 17.5132 4.93189 18.3252 5.70138 18.9815V18.9805ZM1.0625 13.533C1.06246 11.686 1.61338 9.88103 2.6448 8.34886C3.67622 6.81668 5.14125 5.62702 6.8525 4.93203C8.56374 4.23703 10.4434 4.06831 12.2511 4.44743C14.0587 4.82656 15.7122 5.7363 17 7.06029C18.2878 5.7363 19.9413 4.82656 21.7489 4.44743C23.5566 4.06831 25.4363 4.23703 27.1475 4.93203C28.8588 5.62702 30.3238 6.81668 31.3552 8.34886C32.3866 9.88103 32.9375 11.686 32.9375 13.533C32.9411 14.9829 32.6032 16.4133 31.9512 17.7084C31.2993 19.0034 30.3515 20.1268 29.1848 20.9875L19.3779 29.0689C18.5991 29.7109 17.6172 30.0548 16.608 30.0391C15.5989 30.0233 14.6282 29.6489 13.8699 28.9828L4.31588 20.5912C3.2947 19.7206 2.47487 18.6385 1.91313 17.4198C1.3514 16.2012 1.06116 14.875 1.0625 13.533Z" fill="#3B5D4F" stroke="#3B5D4F" stroke-width="0.5"/>
</svg>
