<svg width="21" height="36" viewBox="0 0 21 36" fill="none" xmlns="http://www.w3.org/2000/svg">
<path d="M10.5 0C4.70106 0 0 4.62575 0 10.3318C0.00421159 12.0837 0.461131 13.8059 0.886731 14.5711L10.5 36L19.6876 15.3363H19.6828C20.5458 13.805 20.9991 12.0829 21 10.3318C21.0001 4.62575 16.299 0 10.5 0ZM10.5 5.16585C11.1895 5.16585 11.8722 5.29947 12.5091 5.55909C13.1461 5.81871 13.7249 6.19923 14.2124 6.67894C14.6999 7.15865 15.0866 7.72815 15.3504 8.35492C15.6142 8.98168 15.75 9.65345 15.75 10.3318C15.75 11.7019 15.1969 13.0159 14.2123 13.9847C13.2278 14.9534 11.8924 15.4977 10.5 15.4977C9.10767 15.4977 7.77232 14.9534 6.78777 13.9847C5.80321 13.0159 5.2501 11.7019 5.2501 10.3318C5.2501 8.96178 5.80321 7.64783 6.78777 6.67904C7.77232 5.71026 9.10767 5.166 10.5 5.166V5.16585Z" fill="#3B5D4F"/>
</svg>
