<svg width="44" height="46" viewBox="0 0 44 46" fill="none" xmlns="http://www.w3.org/2000/svg">
<rect width="44" height="45" rx="5" fill="#3B5D4F"/>
<path d="M11.28 8.2H14V25.36C14 28.9333 14.6667 31.5067 16 33.08C17.3333 34.6533 19.48 35.44 22.44 35.44C23.9867 35.44 25.2933 35.24 26.36 34.84C27.4533 34.4133 28.3333 33.7867 29 32.96C29.6667 32.1067 30.1467 31.0533 30.44 29.8C30.7333 28.5467 30.88 27.0667 30.88 25.36V8.2H33.6V26.16C33.6 29.92 32.6667 32.8 30.8 34.8C28.96 36.7733 26.1733 37.76 22.44 37.76C18.68 37.76 15.88 36.7467 14.04 34.72C12.2 32.6933 11.28 29.84 11.28 26.16V8.2Z" fill="white"/>
<path d="M13.2071 6.29289C12.8166 5.90237 12.1834 5.90237 11.7929 6.29289L5.42893 12.6569C5.03841 13.0474 5.03841 13.6805 5.42893 14.0711C5.81946 14.4616 6.45262 14.4616 6.84315 14.0711L12.5 8.41421L18.1569 14.0711C18.5474 14.4616 19.1805 14.4616 19.5711 14.0711C19.9616 13.6805 19.9616 13.0474 19.5711 12.6569L13.2071 6.29289ZM12.5 7H11.5V16H12.5H13.5V7H12.5Z" fill="white"/>
</svg>
