<svg width="31" height="31" viewBox="0 0 31 31" fill="none" xmlns="http://www.w3.org/2000/svg">
<path d="M9.3 13.9464C9.3 13.5354 9.4633 13.1411 9.75398 12.8504C10.0447 12.5598 10.4389 12.3964 10.85 12.3964H20.15C20.5611 12.3964 20.9553 12.5598 21.246 12.8504C21.5367 13.1411 21.7 13.5354 21.7 13.9464C21.7 14.3575 21.5367 14.7518 21.246 15.0425C20.9553 15.3331 20.5611 15.4964 20.15 15.4964H10.85C10.4389 15.4964 10.0447 15.3331 9.75398 15.0425C9.4633 14.7518 9.3 14.3575 9.3 13.9464ZM10.85 18.5964C10.4389 18.5964 10.0447 18.7597 9.75398 19.0504C9.4633 19.3411 9.3 19.7354 9.3 20.1464C9.3 20.5575 9.4633 20.9518 9.75398 21.2425C10.0447 21.5331 10.4389 21.6964 10.85 21.6964H17.05C17.4611 21.6964 17.8553 21.5331 18.146 21.2425C18.4367 20.9518 18.6 20.5575 18.6 20.1464C18.6 19.7354 18.4367 19.3411 18.146 19.0504C17.8553 18.7597 17.4611 18.5964 17.05 18.5964H10.85ZM1.7464e-06 15.4964C0.000779155 12.0982 1.1183 8.79443 3.18057 6.09352C5.24285 3.39261 8.13558 1.44428 11.4136 0.548375C14.6916 -0.34753 18.1732 -0.141354 21.3225 1.13517C24.4718 2.4117 27.1144 4.68783 28.8435 7.61326C30.5726 10.5387 31.2924 13.9513 30.8921 17.3258C30.4918 20.7004 28.9936 23.8499 26.6281 26.2896C24.2625 28.7293 21.1608 30.3241 17.8002 30.8284C14.4396 31.3326 11.0064 30.7186 8.029 29.0806L2.0026 30.9158C1.7338 30.9977 1.4478 31.005 1.17519 30.9369C0.902578 30.8688 0.653611 30.7278 0.454919 30.5291C0.256227 30.3304 0.115284 30.0815 0.0471672 29.8088C-0.0209499 29.5362 -0.0136793 29.2502 0.0682016 28.9814L1.9034 22.9457C0.653371 20.6619 -0.00123401 18.1 1.7464e-06 15.4964ZM15.5 3.09646C13.2988 3.09627 11.1372 3.68203 9.23731 4.79357C7.33738 5.90511 5.76758 7.50236 4.68915 9.42126C3.61071 11.3402 3.0625 13.5116 3.10084 15.7124C3.13918 17.9133 3.76268 20.0643 4.9073 21.9444C5.02092 22.1312 5.09375 22.3399 5.12099 22.5568C5.14824 22.7737 5.1293 22.994 5.0654 23.203L3.8781 27.1059L7.7748 25.9186C7.98454 25.8547 8.20545 25.8361 8.42294 25.8639C8.64043 25.8916 8.84956 25.9653 9.0365 26.0798C10.6707 27.0776 12.5139 27.6834 14.4214 27.8496C16.3289 28.0159 18.2491 27.7381 20.0313 27.0381C21.8135 26.3381 23.4094 25.2348 24.6939 23.8148C25.9784 22.3948 26.9166 20.6967 27.435 18.8534C27.9534 17.0101 28.0378 15.0719 27.6817 13.1905C27.3257 11.3091 26.5387 9.5358 25.3826 8.00945C24.2265 6.48311 22.7326 5.24524 21.018 4.39286C19.3034 3.54048 17.4148 3.09676 15.5 3.09646Z" fill="#3B5D4F"/>
</svg>
