<svg width="23" height="23" viewBox="0 0 23 23" fill="none" xmlns="http://www.w3.org/2000/svg">
<path d="M11.97 23L0 11.0444V0H11.0577L23 11.9832L11.97 23ZM11.97 19.88L19.8762 11.9832L10.1178 2.20888H2.21154V10.1056L11.97 19.88ZM4.97596 6.62665C5.4367 6.62665 5.82851 6.46577 6.15139 6.14401C6.47428 5.82225 6.63535 5.43091 6.63462 4.96999C6.63388 4.50907 6.47281 4.1181 6.15139 3.79707C5.82998 3.47605 5.43817 3.3148 4.97596 3.31333C4.51375 3.31185 4.12231 3.4731 3.80164 3.79707C3.48096 4.12104 3.31952 4.51201 3.31731 4.96999C3.3151 5.42796 3.47654 5.8193 3.80164 6.14401C4.12673 6.46872 4.51817 6.6296 4.97596 6.62665Z" fill="#3B5D4F"/>
</svg>
