<svg width="26" height="26" viewBox="0 0 26 26" fill="none" xmlns="http://www.w3.org/2000/svg">
<path d="M21.9172 18.525H9.1203C7.43436 18.525 6.07343 17.1641 6.07343 15.4781V5.72815C6.07343 4.04221 7.43436 2.68127 9.1203 2.68127H21.9172C23.6031 2.68127 24.9641 4.04221 24.9641 5.72815V15.4781C24.9641 17.1438 23.6031 18.525 21.9172 18.525ZM9.1203 3.90002C8.10468 3.90002 7.29218 4.71252 7.29218 5.72815V15.4781C7.29218 16.4938 8.10468 17.3063 9.1203 17.3063H21.9172C22.9328 17.3063 23.7453 16.4938 23.7453 15.4781V5.72815C23.7453 4.71252 22.9328 3.90002 21.9172 3.90002H9.1203Z" fill="#3B5D4F"/>
<path d="M4.81409 18.586H1.56409C1.21877 18.586 0.954712 18.3219 0.954712 17.9766C0.954712 17.6313 1.21877 17.3672 1.56409 17.3672H4.81409C5.1594 17.3672 5.42346 17.6313 5.42346 17.9766C5.42346 18.3219 5.1594 18.586 4.81409 18.586ZM4.81409 3.90002H1.56409C1.21877 3.90002 0.954712 3.63596 0.954712 3.29065C0.954712 2.94534 1.21877 2.68127 1.56409 2.68127H4.81409C5.1594 2.68127 5.42346 2.94534 5.42346 3.29065C5.42346 3.63596 5.1594 3.90002 4.81409 3.90002Z" fill="#3B5D4F"/>
<path d="M3.12811 18.1391C2.7828 18.1391 2.51874 17.875 2.51874 17.5297V3.29065C2.51874 2.94534 2.7828 2.68127 3.12811 2.68127C3.47343 2.68127 3.73749 2.94534 3.73749 3.29065V17.5297C3.73749 17.8547 3.45311 18.1391 3.12811 18.1391ZM24.4359 23.3188C24.0906 23.3188 23.8266 23.0547 23.8266 22.7094V19.4594C23.8266 19.1141 24.0906 18.85 24.4359 18.85C24.7812 18.85 25.0453 19.1141 25.0453 19.4594V22.7094C25.0453 23.0547 24.7609 23.3188 24.4359 23.3188ZM6.70311 23.3188C6.3578 23.3188 6.09374 23.0547 6.09374 22.7094V19.4594C6.09374 19.1141 6.3578 18.85 6.70311 18.85C7.04843 18.85 7.31249 19.1141 7.31249 19.4594V22.7094C7.31249 23.0547 7.02811 23.3188 6.70311 23.3188Z" fill="#3B5D4F"/>
<path d="M24.1922 21.775H6.70312C6.35781 21.775 6.09375 21.511 6.09375 21.1656C6.09375 20.8203 6.35781 20.5563 6.70312 20.5563H24.1922C24.5375 20.5563 24.8016 20.8203 24.8016 21.1656C24.8016 21.511 24.5172 21.775 24.1922 21.775Z" fill="#3B5D4F"/>
</svg>
