<svg width="30" height="29" viewBox="0 0 30 29" fill="none" xmlns="http://www.w3.org/2000/svg">
<path d="M6.09872 9.29329C2.74704 9.29329 0 12.0319 0 15.3746C0 16.6698 0.413551 17.8736 1.11374 18.8631L5.35468 26.1943C5.94858 26.9703 6.34354 26.823 6.83754 26.1536L11.515 18.1934C11.6093 18.022 11.6834 17.8402 11.7482 17.6543C12.0448 16.9309 12.1974 16.1565 12.1974 15.3746C12.1974 12.0319 9.45127 9.29329 6.09872 9.29329ZM6.09872 12.1428C7.90394 12.1428 9.33975 13.5749 9.33975 15.3749C9.33975 17.1749 7.90365 18.6063 6.09872 18.6063C4.29379 18.6063 2.85769 17.1746 2.85769 15.3749C2.85769 13.5752 4.29408 12.1428 6.09872 12.1428ZM25.4839 0C23.5289 0 21.9263 1.59757 21.9263 3.54771C21.9263 4.30308 22.1674 5.00531 22.576 5.58236L25.0501 9.85902C25.3965 10.3115 25.6268 10.2255 25.9149 9.8352L28.6434 5.19146C28.6985 5.09185 28.7418 4.98585 28.7793 4.87723C28.9528 4.45549 29.0419 4.00378 29.0415 3.54771C29.0415 1.59728 27.4396 0 25.4839 0ZM25.4839 1.66234C26.537 1.66234 27.3745 2.49757 27.3745 3.54771C27.3745 4.59785 26.537 5.43251 25.4839 5.43251C24.4309 5.43251 23.5933 4.59756 23.5933 3.54771C23.5933 2.49786 24.4312 1.66234 25.4839 1.66234Z" fill="#3B5D4F"/>
<path fill-rule="evenodd" clip-rule="evenodd" d="M25.6172 10.865C24.9647 10.8795 24.3103 10.9071 23.6549 10.9556L23.7559 12.5622C24.3856 12.5166 25.0163 12.4872 25.6474 12.4742L25.6172 10.865ZM22.1395 11.1032C21.1318 11.2283 20.1153 11.4066 19.1105 11.6933L19.4889 13.2502C20.4019 12.99 21.3481 12.8218 22.3091 12.7025L22.1395 11.1032ZM17.6058 12.2323C17.3047 12.3652 17.0132 12.5188 16.7334 12.692L16.7323 12.6935L16.7305 12.6941C16.3312 12.9456 15.9104 13.2647 15.5668 13.7285C15.3179 14.0645 15.1143 14.4894 15.0667 14.9918L16.5464 15.1559C16.5574 15.038 16.6178 14.8823 16.7264 14.736H16.727V14.7354C16.9021 14.4984 17.1647 14.2832 17.4769 14.0863L17.478 14.0857C17.7007 13.9487 17.9324 13.8268 18.1715 13.721L17.6058 12.2323ZM16.8441 15.8727L15.8848 17.1026C16.1122 17.3105 16.3506 17.4702 16.5809 17.6038L16.5838 17.6053L16.5868 17.607C17.3511 18.0418 18.1393 18.2872 18.87 18.5201L19.2899 16.9756C18.5595 16.7427 17.871 16.518 17.2808 16.1828C17.1118 16.0847 16.9637 15.9821 16.8441 15.8727ZM20.7167 17.4101L20.3067 18.9572L20.5007 19.0176L20.7388 19.0936C21.527 19.3501 22.2821 19.6239 22.957 20.0029L23.6418 18.5741C22.8257 18.1155 21.9786 17.8158 21.1622 17.5504L21.1599 17.5498L20.9154 17.4717L20.7167 17.4101ZM25.0343 19.6463L23.9822 20.7847C24.2308 21.0539 24.4169 21.3778 24.5075 21.7123L24.5081 21.7141L24.5087 21.7167C24.6167 22.1073 24.617 22.5667 24.5325 23.0308L25.9916 23.3421C26.1106 22.687 26.1298 21.9676 25.9341 21.2575C25.7636 20.6297 25.4383 20.0843 25.0343 19.6463ZM24.0231 24.0008C23.8621 24.1704 23.6845 24.3233 23.4928 24.4573H23.4922C22.9695 24.825 22.3631 25.102 21.719 25.3402L22.1993 26.8631C22.9039 26.6026 23.6273 26.2832 24.3034 25.8075L24.3051 25.806L24.306 25.8054C24.5836 25.6109 24.8404 25.3884 25.0724 25.1413L24.0231 24.0008ZM20.3523 25.7691C19.4192 26.0201 18.4654 26.2111 17.5001 26.3732L17.7278 27.9644C18.7213 27.7974 19.7189 27.5979 20.7104 27.3313L20.3523 25.7691ZM16.0477 26.5927C15.076 26.7255 14.0991 26.8338 13.1192 26.9261L13.2476 28.5298C14.2425 28.4363 15.2392 28.3262 16.2345 28.19L16.0477 26.5927ZM11.6465 27.0525C10.6646 27.1303 9.68039 27.1936 8.6953 27.2471L8.76964 28.8548C9.76432 28.8011 10.7599 28.7369 11.7551 28.6579L11.6465 27.0525ZM7.21505 27.3197C6.62464 27.3472 6.03277 27.3699 5.43945 27.3908L5.48824 29C6.08527 28.9795 6.68218 28.9557 7.27894 28.9286L7.21505 27.3197Z" fill="#3B5D4F"/>
</svg>
