<svg width="14" height="15" viewBox="0 0 14 15" fill="none" xmlns="http://www.w3.org/2000/svg">
<path d="M3.75 9C3.5375 9 3.3595 8.928 3.216 8.784C3.0725 8.64 3.0005 8.462 3 8.25C2.9995 8.038 3.0715 7.86 3.216 7.716C3.3605 7.572 3.5385 7.5 3.75 7.5C3.9615 7.5 4.13975 7.572 4.28475 7.716C4.42975 7.86 4.5015 8.038 4.5 8.25C4.4985 8.462 4.4265 8.64025 4.284 8.78475C4.1415 8.92925 3.9635 9.001 3.75 9ZM6.75 9C6.5375 9 6.3595 8.928 6.216 8.784C6.0725 8.64 6.0005 8.462 6 8.25C5.9995 8.038 6.0715 7.86 6.216 7.716C6.3605 7.572 6.5385 7.5 6.75 7.5C6.9615 7.5 7.13975 7.572 7.28475 7.716C7.42975 7.86 7.5015 8.038 7.5 8.25C7.4985 8.462 7.4265 8.64025 7.284 8.78475C7.1415 8.92925 6.9635 9.001 6.75 9ZM9.75 9C9.5375 9 9.3595 8.928 9.216 8.784C9.0725 8.64 9.0005 8.462 9 8.25C8.9995 8.038 9.0715 7.86 9.216 7.716C9.3605 7.572 9.5385 7.5 9.75 7.5C9.9615 7.5 10.1397 7.572 10.2847 7.716C10.4297 7.86 10.5015 8.038 10.5 8.25C10.4985 8.462 10.4265 8.64025 10.284 8.78475C10.1415 8.92925 9.9635 9.001 9.75 9ZM1.5 15C1.0875 15 0.7345 14.8533 0.441 14.5597C0.1475 14.2662 0.0005 13.913 0 13.5V3C0 2.5875 0.147 2.2345 0.441 1.941C0.735 1.6475 1.088 1.5005 1.5 1.5H2.25V0H3.75V1.5H9.75V0H11.25V1.5H12C12.4125 1.5 12.7657 1.647 13.0597 1.941C13.3538 2.235 13.5005 2.588 13.5 3V13.5C13.5 13.9125 13.3533 14.2657 13.0597 14.5597C12.7662 14.8538 12.413 15.0005 12 15H1.5ZM1.5 13.5H12V6H1.5V13.5ZM1.5 4.5H12V3H1.5V4.5Z" fill="white"/>
</svg>
