<svg width="10" height="18" viewBox="0 0 10 18" fill="none" xmlns="http://www.w3.org/2000/svg">
<path d="M5.00002 0C2.2386 0 0 2.31288 0 5.16592C0.00200552 6.04184 0.219586 6.90296 0.422253 7.28553L5.00002 18L9.37504 7.66815H9.37275C9.78371 6.90248 9.99956 6.04145 10 5.16592C10 2.31288 7.76144 0 5.00002 0ZM5.00002 2.58292C5.32833 2.58292 5.65342 2.64974 5.95673 2.77955C6.26005 2.90935 6.53565 3.09962 6.76779 3.33947C6.99994 3.57933 7.18408 3.86408 7.30971 4.17746C7.43534 4.49084 7.5 4.82672 7.49999 5.16592C7.49999 5.85096 7.2366 6.50794 6.76777 6.99233C6.29893 7.47672 5.66305 7.74885 5.00002 7.74885C4.33698 7.74885 3.70111 7.47672 3.23227 6.99233C2.76343 6.50794 2.50005 5.85096 2.50005 5.16592C2.50005 4.48089 2.76343 3.82391 3.23227 3.33952C3.70111 2.85513 4.33698 2.58292 5.00002 2.58292Z" fill="white"/>
</svg>
